<svg xmlns="http://www.w3.org/2000/svg" xmlns:xlink="http://www.w3.org/1999/xlink" version="1.1" width="752.17pt" height="627.319pt" viewBox="0 0 752.17 627.319">
<defs>
<clipPath id="clip_0">
<path transform="matrix(1,0,0,-1,0,627.319)" d="M0 627.319H752.17V0H0Z"/>
</clipPath>
</defs>
<g id="layer_1" data-name="">
<g clip-path="url(#clip_0)">
<path transform="matrix(1,0,0,-1,575.9918,437.29847)" d="M0 0 15.361 12.972V39.555L25.692 48.376V67.345L65.133 109.478 5.697 98.897C4.628 114.007 2.295 129.805-1.237 145.862L-11.341 191.783-26.89 160.634C-28.122 164.858-29.476 169.13-30.929 173.396-30.917 173.48-30.904 173.567-30.891 173.66-30.77 174.429-30.641 175.543-30.499 176.909-30.234 179.643-30.069 183.404-30.29 187.44-30.401 189.457-30.616 191.54-30.899 193.594-31.203 195.646-31.586 197.667-32.025 199.565-32.911 203.348-34.058 206.688-34.846 208.75-35.621 210.851-37.215 213.677-38.932 216.613-39.786 218.087-40.668 219.608-41.475 221.154-42.277 222.697-42.992 224.247-43.57 225.834-44.726 228.985-45.195 232.158-45.066 234.539-45.029 235.734-44.841 236.708-44.708 237.395-44.537 238.076-44.441 238.456-44.441 238.456-44.441 238.456-44.717 238.163-45.209 237.637-45.669 237.084-46.352 236.257-47.01 235.099-47.683 233.95-48.36 232.481-48.889 230.765-49.421 229.052-49.808 227.099-49.995 225.043-50.18 222.999-50.158 220.819-49.985 218.729-49.941 218.196-49.889 217.668-49.828 217.146-50.485 218.385-51.152 219.623-51.83 220.855-53.194 223.344-54.476 225.597-55.747 227.743-56.847 229.607-58.333 232.088-60.082 234.75L-74.167 256.189C-73.938 256.857-73.709 257.526-73.482 258.195L-71.598 263.771-70.234 267.927C-70.078 268.393-69.913 268.939-69.758 269.473L-69.582 270.078C-69.435 270.6-69.308 271.129-69.18 271.657L-69.157 271.652C-69.157 271.652-68.757 273.429-68.122 276.243-67.498 279.093-66.668 283.05-66.019 287.454-65.38 291.861-64.922 296.72-65.139 301.387-65.24 303.715-65.512 305.996-65.996 308.106-66.469 310.211-67.16 312.139-67.92 313.678-68.312 314.479-68.77 315.242-69.306 316.002-69.841 316.766-70.447 317.519-71.086 318.24-72.362 319.686-73.767 321.003-74.992 322.239-77.408 324.653-79.779 327.904-81.414 331.422-83.062 334.922-83.981 338.604-84.312 341.374-84.402 342.067-84.475 342.704-84.502 343.266-84.543 343.829-84.581 344.323-84.578 344.723-84.593 345.535-84.602 345.988-84.602 345.988-84.602 345.988-84.789 345.569-85.126 344.82-85.305 344.443-85.48 343.973-85.687 343.42-85.907 342.87-86.114 342.234-86.329 341.52-86.569 340.808-86.736 340.015-86.956 339.154-87.121 338.293-87.327 337.361-87.439 336.374-87.703 334.398-87.839 332.18-87.696 329.859-87.624 328.605-87.476 327.319-87.258 326.026L-95.433 336.155C-97.653 340.516-100.899 345.326-105.081 350.453-106.438 352.949-108.357 355.227-110.785 357.223-116.222 361.673-123.826 364.437-130.633 364.437-133.814 364.437-136.796 363.867-139.495 362.744-149.661 358.532-154.972 346.912-154.988 337.557-156.638 333.641-158.554 328.977-161.072 322.814-161.427 323.09-161.782 323.366-162.14 323.641-164.645 325.575-167.224 327.468-169.84 329.328-170.787 330.388-171.661 331.473-172.407 332.529-173.251 333.797-174.002 335.018-174.424 336.035-174.532 336.287-174.662 336.54-174.751 336.768-174.816 336.986-174.884 337.194-174.953 337.393-175.021 337.596-175.096 337.763-175.148 338.001-175.216 338.281-175.28 338.546-175.341 338.796-175.482 339.37-175.687 340.183-176.121 341.275-176.607 342.521-177.367 343.809-178.411 344.94-178.929 345.504-179.55 346.062-180.071 346.443-180.622 346.865-181.128 347.169-181.627 347.466-182.59 348.013-183.44 348.396-184.037 348.669-184.68 348.967-184.956 349.045-185.338 349.273-185.702 349.493-186.08 349.834-186.437 350.358-187.166 351.399-187.712 353.118-188.118 354.939-188.531 356.768-188.857 358.726-189.294 360.539-189.726 362.358-190.289 364.051-190.99 365.378-191.69 366.713-192.496 367.646-193.102 368.198-193.396 368.483-193.655 368.67-193.826 368.798-193.995 368.924-194.085 368.992-194.085 368.992-194.085 368.992-194.033 368.891-193.935 368.701-193.837 368.513-193.689 368.242-193.553 367.873-193.259 367.149-192.975 366.076-192.926 364.79-192.874 363.498-193.053 362.002-193.386 360.347-193.715 358.683-194.195 356.868-194.589 354.795-194.96 352.728-195.31 350.369-194.841 347.581-194.668 346.579-194.358 345.525-193.902 344.498-195.879 345.6-197.859 346.682-199.846 347.723-203.469 349.613-206.711 351.226-209.749 352.65-210.998 353.256-212.229 353.813-213.283 354.288L-214.869 355.008C-215.795 355.423-216.721 355.825-217.65 356.229L-218.26 356.492C-218.746 356.699-219.233 356.91-219.669 357.099L-244.36 368.454-243.01 340.366-243.001 339.879C-242.996 339.577-243.001 339.267-243.016 338.888-243.041 338.09-243.092 337.29-243.169 336.509-243.32 334.919-243.567 333.222-243.946 331.164-244.558 327.825-245.514 324.242-246.87 320.211-248.074 316.632-249.558 312.95-251.279 309.269-253.094 305.43-255.016 301.763-256.993 298.368-258.948 294.984-261.185 291.489-263.64 287.976L-263.692 287.9C-264.208 287.146-264.784 286.335-265.374 285.515-265.425 285.787-265.479 286.054-265.542 286.307-265.893 287.74-266.362 288.897-266.71 289.771-266.856 290.138-267.004 290.51-267.153 290.887L-267.312 291.301C-267.347 291.388-267.382 291.417-267.424 291.484-267.484 291.601-267.565 291.747-267.571 291.889L-267.594 291.982C-267.604 291.978-267.582 292.062-267.569 292.123L-267.525 292.312-267.325 293.088C-266.246 297.247-264.381 302.04-263.582 306.764-263.478 307.349-263.408 307.944-263.326 308.515-263.276 309.102-263.209 309.668-263.184 310.233-263.172 310.803-263.124 311.347-263.149 311.894-263.155 312.17-263.162 312.444-263.168 312.715-263.159 313.001-263.195 313.33-263.242 313.63-263.569 315.64-264.083 317.349-264.608 318.739-265.135 320.128-265.68 321.188-266.089 321.894-266.503 322.599-266.764 322.96-266.764 322.96-266.764 322.96-266.642 322.525-266.493 321.739-266.35 320.951-266.201 319.808-266.171 318.408-266.14 317.011-266.221 315.346-266.527 313.575-266.565 313.388-266.602 313.222-266.679 313.022-266.746 312.811-266.814 312.597-266.883 312.38-267.008 311.939-267.207 311.499-267.366 311.052-267.539 310.606-267.754 310.16-267.947 309.709-268.174 309.261-268.384 308.81-268.63 308.357-270.541 304.722-273.462 301.095-276.045 296.72L-276.522 295.896-276.637 295.683C-276.678 295.606-276.706 295.561-276.77 295.423L-277.105 294.714C-277.212 294.481-277.309 294.25-277.405 294.015-277.473 293.773-277.509 293.524-277.562 293.277-277.672 292.784-277.734 292.283-277.789 291.778-277.836 291.282-277.843 290.748-277.841 290.274-277.826 289.847-277.817 289.408-277.778 289.031-277.717 288.225-277.614 287.562-277.525 286.934-277.337 285.712-277.223 284.848-277.243 284.292-277.26 283.731-277.378 283.542-277.473 283.45L-277.546 282.81C-277.826 281.545-278.247 280.522-278.553 279.626-278.943 278.711-279.505 277.531-280.46 276.113-281.403 274.694-282.743 273.045-284.321 271.199-285.897 269.347-287.726 267.292-289.541 264.944L-290.891 263.124-291.546 262.157-291.871 261.673-292.088 261.351C-292.169 261.238-292.269 261.082-292.338 260.938L-292.914 259.858-293.401 258.923C-293.726 258.302-294.036 257.676-294.344 257.056-295.88 253.946-297.181 250.872-298.212 248.106-299.679 246.646-301.143 245.194-302.592 243.759L-307.066 239.314-302.949 266.701-336.961 237.272C-339.464 235.095-361.996 215.021-382.167 181.28-382.884 180.08-383.603 178.851-384.321 177.6-384.237 178.209-384.174 178.853-384.155 179.542-384.146 179.841-384.148 180.152-384.158 180.466L-384.184 180.92-384.218 181.236-384.356 182.498C-384.736 185.863-385.229 189.197-385.716 192.388-386.708 198.764-387.592 204.606-387.993 208.931-388.203 211.089-388.319 212.86-388.384 214.092-388.438 215.326-388.469 216.014-388.469 216.014-388.469 216.014-388.637 215.341-388.938 214.136-389.227 212.926-389.617 211.171-390.015 208.994-390.831 204.648-391.561 198.592-392.185 192.153-392.506 188.935-392.826 185.629-393.206 182.41L-393.35 181.207-393.385 180.907C-393.398 180.833-393.413 180.804-393.425 180.751L-393.521 180.446C-393.659 180.021-393.861 179.511-394.121 178.926-394.264 178.615-394.404 178.306-394.545 177.998L-394.779 177.494C-394.825 177.428-394.85 177.42-394.887 177.385L-394.949 177.34C-394.979 177.308-394.973 177.338-395.034 177.246L-395.319 176.84C-395.524 176.563-395.729 176.288-395.931 176.014-397.602 173.793-399.544 171.504-401.176 168.895-402.822 166.345-404.082 163.299-404.454 160.535-404.567 159.86-404.585 159.134-404.634 158.435-404.645 157.906-404.621 157.372-404.595 156.839-404.582 151.921-404.252 147.178-404.066 142.675-404.019 141.542-403.984 140.427-403.96 139.317L-403.936 137.565C-403.943 136.922-403.888 136.371-403.861 135.777L-403.751 133.812C-408.085 120.239-411.312 105.359-412.556 89.422-413.301 92.417-413.946 95.539-414.311 98.584-414.596 100.906-414.794 103.278-415.099 105.478-415.39 107.675-415.798 109.701-416.304 111.359-416.806 113.021-417.372 114.312-417.831 115.163-418.043 115.594-418.259 115.908-418.38 116.128-418.51 116.344-418.578 116.459-418.578 116.459-418.578 116.459-418.557 116.326-418.516 116.075-418.482 115.822-418.399 115.463-418.359 114.99-418.245 114.055-418.192 112.705-418.309 111.097-418.423 109.485-418.731 107.62-419.194 105.57-419.645 103.519-420.248 101.283-420.778 98.826-421.872 93.837-422.271 88.304-422.178 83.378-422.087 78.442-421.476 74.095-420.716 71.302-419.968 68.503-418.729 64.345-416.985 59.779-416.544 58.64-416.1 57.466-415.594 56.29-415.113 55.106-414.582 53.918-414.039 52.727-413.508 51.529-412.908 50.357-412.332 49.166-411.861 48.247-411.366 47.348-410.854 46.463-410.376 43.449-409.822 40.413-409.178 37.352-408.352 33.42-407.401 29.451-406.353 25.546L-461.688 15.696-425.506-10.076V-77.67L-464.946-119.802-315.589-93.214C-282.813-111.859-243.647-121.713-202.307-121.713-190.474-121.713-178.402-120.895-166.45-119.286-162.158-118.864-123.371-114.436-83.4-89.165-63.481-76.573-46.371-60.984-32.538-42.827L36.188-30.593 .001-4.816Z" fill="#f15b2b"/>
<path transform="matrix(1,0,0,-1,573.0123,349.32197)" d="M0 0C-.57 17.787-2.99 36.438-7.272 55.902L-11.765 76.32-21.101 57.619C-21.229 57.36-23.537 52.788-27.063 46.653-27.79 50.37-28.602 54.099-29.5 57.792-31.802 67.354-34.749 77.157-38.257 86.942-41.63 96.296-45.58 105.711-49.999 114.929-52.141 119.409-54.479 123.957-56.946 128.443-58.245 130.812-59.476 132.979-60.719 135.077-61.931 137.132-63.272 139.354-64.817 141.705L-78.337 162.283V138.461C-78.417 137.926-78.497 137.397-78.57 136.861-78.725 135.803-78.879 134.745-79.057 133.667-79.315 132.08-79.599 130.375-79.912 128.677-80.417 125.889-80.983 123.04-81.642 120.006-81.653 120.025-81.666 120.049-81.672 120.068-82.244 121.163-82.786 122.191-83.364 123.206L-83.567 123.563C-85.045 126.185-86.447 128.665-87.752 130.831-89.187 133.212-90.337 135.102-91.31 136.627L-91.968 137.637-91.026 140.295-87.1 151.187C-86.521 152.775-85.949 154.363-85.371 155.951-83.328 161.569-81.211 167.378-79.248 173.175L-77.364 178.744-76.017 182.855C-75.894 183.218-75.765 183.649-75.642 184.074L-75.487 184.603C-74.165 189.304-73.765 194.338-74.324 199.15-74.835 203.649-76.085 208.172-78.029 212.609-78.958 214.726-80.005 216.756-81.125 218.633-81.685 219.581-82.288 220.522-82.946 221.495-83.272 221.981-83.617 222.455-83.992 222.966L-84.503 223.63-92.559 233.612-97.42 224.64C-97.321 230.59-97.666 235.384-98.441 238.356-100.091 244.67-105.506 252.128-109.875 257.396-110.656 259.101-111.925 260.682-113.653 262.104-117.457 265.218-122.952 267.23-127.653 267.23-129.604 267.23-131.401 266.897-132.982 266.239-139.623 263.488-143.413 254.565-142.693 247.907-144.786 242.996-147.487 236.393-150.583 228.812-151.782 225.87-153.032 222.818-154.312 219.704-154.964 220.289-155.647 220.886-156.373 221.501-159.062 223.815-161.899 226.123-164.798 228.356-170.397 232.676-176.343 236.849-182.478 240.756-188.552 244.621-194.828 248.258-201.136 251.562-204.675 253.408-207.831 254.978-210.748 256.344-211.874 256.892-213.013 257.408-214.108 257.901-214.625 258.135-215.136 258.369-215.665 258.608-216.736 259.088-217.807 259.55-218.884 260.018-219.45 260.258-220.016 260.504-220.526 260.725L-231.432 265.741-230.804 252.688-230.791 252.03C-230.785 251.575-230.791 251.107-230.81 250.621-230.841 249.648-230.902 248.658-231.001 247.655-231.173 245.852-231.449 243.901-231.887 241.525-232.576 237.759-233.641 233.753-235.142 229.292-236.472 225.341-238.096 221.322-239.954 217.347-241.874 213.286-243.911 209.396-246.021 205.772-248.096 202.184-250.465 198.474-253.093 194.713-253.985 193.409-255 192.006-255.985 190.646L-256.981 189.261-258.976 186.633C-259.652 185.723-260.373 184.812-261 184.024-265.794 177.901-271.4 171.495-278.637 163.858-283.314 158.929-288.286 154.006-293.099 149.243-294.705 147.643-296.323 146.043-297.947 144.425-304.28 138.024-310.994 131.095-317.16 123.84-317.228 123.76-317.302 123.674-317.369 123.594-316.877 127.858-316.342 131.883-315.781 135.637L-312.81 155.409-327.923 142.332C-328.87 141.508-351.362 121.858-371.264 88.566-389.75 57.644-409.245 8.721-397.165-48.725-395.651-55.927-393.788-62.921-391.608-69.712L-435.448-77.516-413.295-93.295V-168.79C-413.295-169.029-413.307-169.201-413.319-169.318L-436.263-193.827-310.899-171.511C-278.923-190.45-240.391-200.459-199.327-200.459-187.831-200.459-176.121-199.659-164.521-198.09-160.158-197.678-123.685-193.573-85.353-169.34-65.286-156.654-48.192-140.721-34.772-122.355L15.907-113.334-6.25-97.553C-6.25-97.513-6.251-83.69-6.251-83.69L9.11-70.718V-44.166L19.441-35.345V-17.346C19.441-17.187 19.447-17.063 19.455-16.971L42.408 7.549Z" fill="#030505"/>
<path transform="matrix(1,0,0,-1,439.4009,102.22424)" d="M0 0C7.868 1.767 15.631 4.847 16.38 6.512 16.405 6.673 16.066 7.515 14.727 8.613 12.306 10.598 8.666 11.874 5.941 11.874 5.12 11.874 4.383 11.757 3.786 11.51 .701 10.231-1.488 4.432-.809 1.198-.603 .218-.29 .031 0 0" fill="#36364f"/>
<path transform="matrix(1,0,0,-1,391.8384,206.00797)" d="M0 0-5.821-5.401C-11.213-21.171-31.051-22.035-31.051-22.035L-36.298-25.06C-21.778-4.104 0 0 0 0M-37.393-30.334C-35.856-30.027-34.325-29.688-32.802-29.326-31.272-28.977-29.763-28.566-28.243-28.178-26.737-27.747-25.226-27.328-23.731-26.855-22.978-26.635-22.235-26.385-21.495-26.127-20.754-25.874-19.995-25.655-19.265-25.373L-17.05-24.568-14.854-23.711C-13.388-23.137-11.94-22.515-10.495-21.876L-8.335-20.893C-7.612-20.565-6.918-20.19-6.199-19.849-4.758-19.167-3.381-18.378-1.956-17.637L.136-16.448 1.187-15.848 2.207-15.201 4.286-13.929 6.318-12.569C7.02-12.133 7.694-11.665 8.355-11.176 9.037-10.708 9.712-10.225 10.414-9.762 9.509-11.153 8.614-12.592 7.567-13.897 7.058-14.564 6.524-15.211 5.999-15.874 5.447-16.506 4.895-17.144 4.325-17.767L3.466-18.7 2.568-19.592 .756-21.378C-.52-22.484-1.77-23.652-3.127-24.671-4.445-25.754-5.845-26.717-7.24-27.702-7.939-28.192-8.671-28.625-9.388-29.09-10.105-29.553-10.829-30.009-11.575-30.418L-13.805-31.681-15.848-32.731C-15.954-33-16.066-33.284-16.191-33.602-16.953-35.501-18.104-38.25-19.647-41.708-21.201-45.161-23.163-49.315-25.555-54.007-27.936-58.705-30.795-63.916-34.061-69.52-37.314-75.132-41.101-81.064-45.337-87.19-47.262-89.966-49.283-92.786-51.402-95.619L-21.348-74.314C-57.799-121.168-93.152-142.382-118.276-151.977-119.006-152.287-119.736-152.596-120.465-152.905-122.445-153.812-124.538-154.435-126.565-155.179L-128.092-155.715-128.854-155.982-129.234-156.115-129.669-156.249C-130.657-156.544-131.643-156.839-132.625-157.134-136.839-158.329-140.925-159.259-145.158-159.855-148.368-160.294-151.63-160.506-154.907-160.367-142.973-168.68-124.172-175.215-96.1-169.368-96.1-169.368-115.65-182.618-147.276-190.107-147.276-190.107-96.388-203.069-50.673-172.249L-75.975-171.672C-75.975-171.672-59.316-163.326-46.188-154.29-46.057-152.31-45.945-150.426-45.886-148.682-45.837-147.173-45.731-145.753-45.705-144.443-45.667-143.129-45.633-141.923-45.602-140.833-45.499-136.465-45.498-133.939-45.498-133.939-45.498-133.939-45.292-134.534-44.968-135.673-44.812-136.245-44.62-136.949-44.395-137.776-44.195-138.611-43.967-139.57-43.711-140.645-43.223-142.8-42.73-145.436-42.233-148.479-41.806-151.524-41.316-154.977-41.035-158.767-40.429-166.342-40.333-175.273-41.344-184.812-41.537-187.202-41.942-189.613-42.311-192.058-42.633-194.511-43.22-196.958-43.71-199.441-44.159-201.933-44.896-204.392-45.534-206.883-46.128-209.387-47.016-211.829-47.823-214.294L-48.99-217.744C-49.011-217.888-49.03-218.01-49.064-218.139-49.097-218.279-49.119-218.518-49.152-218.701-49.198-219.1-49.241-219.505-49.23-219.938-49.252-221.641-48.833-223.572-48.163-225.505-46.772-229.39-44.496-233.28-42.015-236.876-39.509-240.483-36.739-243.825-34.046-246.96-31.339-250.089-28.611-252.937-26.066-255.55-23.524-258.167-21.112-260.501-18.951-262.549-16.805-264.613-14.893-266.374-13.306-267.808-11.941-269.059-10.837-270.048-10.005-270.783-8.099-270.65-6.193-270.499-4.295-270.316-45.263-232.365-42.623-221.215-42.623-221.215-42.623-221.215-29.541-228.128-21.778-229.424-21.778-229.424-33.423-227.264-7.115-162.887L-6.57-188.3C15.438-165.706 27.529-131.634 27.529-131.634 27.529-131.634 24.654-163.895 4.528-195.292-7.752-214.45-8.781-212.681-6.685-223.519-2.8-243.592 5.152-260.379 9.424-268.409 10.876-268.145 12.318-267.859 13.757-267.562 12.819-265.595 11.707-263.236 10.484-260.505 9.231-257.665 7.854-254.44 6.422-250.877 5.022-247.302 3.576-243.389 2.196-239.151 .842-234.894-.439-230.344-1.261-225.248-1.461-223.97-1.618-222.646-1.707-221.256-1.796-219.865-1.81-218.406-1.627-216.8-1.531-215.994-1.391-215.152-1.133-214.241L-.928-213.556-.653-212.837C-.525-212.456-.021-211.505 .173-211.209L.425-210.824 .844-210.227 1.367-209.498 2.418-208.034C3.853-206.097 5.168-204.061 6.534-202.044 7.21-201.032 7.834-199.985 8.493-198.957 9.158-197.932 9.814-196.901 10.428-195.845 12.992-191.682 15.284-187.362 17.396-183.041 18.459-180.881 19.413-178.697 20.389-176.547 21.302-174.375 22.21-172.226 23.028-170.084 24.678-165.803 26.103-161.594 27.309-157.548 27.83-155.777 28.308-154.045 28.749-152.345 31.029-140.234 35.45-110.579 30.824-81.564L6.2-94.548 8.75-89.646C8.957-89.248 29.552-49.102 54.994 45.952L46.096 43.574 47.178 46.66C47.231 46.812 52.475 61.945 61.681 102.778 57.544 100.915 52.477 99.568 48.686 98.723 43.352 86.488 33.603 64.762 25.572 46.944L25.645 46.793C25.585 46.765 25.524 46.733 25.465 46.705 25.045 45.773 24.628 44.849 24.219 43.941 17.733 29.558 11.86 21.171 11.86 21.171 11.921 21.304 11.392 24.453 12.004 29.378L-.431 27.868 13.567 36.625C14.048 38.186 14.65 39.827 15.396 41.526 14.294 40.933 13.181 40.355 12.089 39.748 7.648 37.263 3.271 34.668-.828 31.85-2.863 30.437-4.861 28.976-6.616 27.435-7.528 26.65-8.258 25.934-9.083 25.023L-9.618 24.421-10.198 23.731C-10.587 23.281-10.97 22.781-11.355 22.308-14.072 18.862-16.694 15.145-19.3 11.415-13.756 13.328-9.271 13.25-9.271 13.25-20.658 4.968-31.868-7.886-39.748-17.919-42.553-21.803-45.41-25.662-48.354-29.472-49.36-30.9-50.07-31.941-50.419-32.457-47.607-32.111-44.805-31.69-42.014-31.206-40.469-30.938-38.928-30.649-37.393-30.334" fill="#f15b2b"/>
<path transform="matrix(1,0,0,-1,474.3804,437.34248)" d="M0 0C5.107 5.067 9.39 10.118 13.024 14.734 16.656 19.357 19.607 23.578 21.968 27.121 23.134 28.9 24.157 30.508 25.035 31.919 25.897 33.337 26.632 34.55 27.208 35.547 28.362 37.538 28.94 38.636 28.94 38.636 28.94 38.636 26.607-5.481 3.002-37.015L3.386-36.725C4.311-35.98 5.203-35.196 6.114-34.436L8.835-32.138 11.377-29.744 13.919-27.355 16.46-24.675 19.002-21.992 21.262-19.368C27.523-12.09 33.247-4.365 38.222 3.81 43.172 11.996 47.468 20.564 50.986 29.446 54.424 38.357 57.185 47.542 59.023 56.932 59.998 61.614 60.661 66.36 61.256 71.11 61.746 75.875 62.164 80.651 62.322 85.448 62.665 95.038 62.305 104.672 61.261 114.251 60.754 119.041 60.088 123.819 59.254 128.573 58.435 133.329 57.505 138.071 56.398 142.778 54.227 152.201 51.498 161.509 48.313 170.666 45.147 179.83 41.532 188.851 37.472 197.667 35.432 202.069 33.337 206.448 31.091 210.743 30.705 211.486 30.311 212.225 29.917 212.964 29.37 210.042 28.78 207.131 28.138 204.233 27.381 200.791 26.554 197.366 25.667 193.954 25.225 192.248 24.762 190.545 24.288 188.844 24.093 188.157 23.896 187.474 23.696 186.789 24.003 186.015 24.31 185.24 24.619 184.457 25.359 182.527 26.191 180.609 26.872 178.611 27.581 176.625 28.296 174.624 29.014 172.614 29.641 170.574 30.27 168.525 30.898 166.478 31.558 164.44 32.063 162.356 32.628 160.301 33.171 158.24 33.767 156.203 34.183 154.136 34.631 152.081 35.075 150.041 35.514 148.026 35.865 145.996 36.212 143.99 36.554 142.017 36.711 141.03 36.866 140.051 37.021 139.081 37.144 138.106 37.266 137.141 37.386 136.187 37.615 134.279 37.841 132.413 38.06 130.596 38.263 128.778 38.334 126.995 38.47 125.282 38.582 123.566 38.725 121.915 38.796 120.323 38.878 117.133 38.952 114.218 38.946 111.633 38.992 109.053 38.844 106.794 38.769 104.941 38.691 103.088 38.6 101.634 38.535 100.643 38.466 99.652 38.429 99.124 38.429 99.124 38.429 99.124 38.311 99.642 38.091 100.614 37.876 101.585 37.564 103.009 37.206 104.818 37.028 105.723 36.809 106.722 36.61 107.812 36.509 108.356 36.402 108.923 36.292 109.51 36.162 110.095 36.028 110.701 35.89 111.327 35.309 113.826 34.802 116.656 34.127 119.717 33.388 122.768 32.731 126.087 31.872 129.558 31.448 131.291 31.013 133.071 30.567 134.891 30.344 135.799 30.118 136.717 29.891 137.644 29.633 138.562 29.372 139.489 29.109 140.424 28.604 142.295 28.091 144.197 27.571 146.122 27.002 148.03 26.427 149.961 25.847 151.908 25.298 153.862 24.654 155.802 24.019 157.753 23.374 159.7 22.788 161.673 22.051 163.596 21.346 165.528 20.641 167.46 19.938 169.384 19.194 171.292 18.453 173.192 17.718 175.077 17.016 176.974 16.16 178.797 15.4 180.628 15.011 181.54 14.624 182.446 14.239 183.347 13.837 184.24 13.438 185.126 13.042 186.006 12.241 187.762 11.496 189.505 10.691 191.181 9.882 192.855 9.09 194.493 8.319 196.087 7.581 197.697 6.769 199.224 6.033 200.723 5.28 202.213 4.583 203.667 3.842 205.033 2.4 207.782 1.138 210.34-.078 212.543-.305 212.964-.517 213.366-.728 213.768-1.451 211.611-2.159 209.451-2.846 207.286-1.719 198.517 5.017 146.223 9.467 114.019 9.857 111.191 10.07 108.29 10.146 105.338 12.469 112.408 15.326 121.018 16.865 125.335 16.865 125.335 35.981 54.005-7.996-7.296-5.14-4.895-2.47-2.448 0 0" fill="#f15b2b"/>
<path transform="matrix(1,0,0,-1,305.5172,459.48017)" d="M0 0C0 0 18.866-9.049 49.425-5.31 47.867-3.704 46.28-2.013 44.671-.223 44.534-.072 44.399 .091 44.263 .243 36.333-.628 17.543-2.202 0 0" fill="#f15b2b"/>
<path transform="matrix(1,0,0,-1,556.6539,307.54948)" d="M0 0C-2.824-4.951-6.512-11.037-10.614-16.931-9.686-26.139-9.349-35.424-9.646-44.707-9.793-49.769-10.206-54.826-10.753-59.867-11.392-64.899-12.11-69.928-13.155-74.9-15.133-84.864-18.089-94.636-21.772-104.107-25.532-113.553-30.122-122.665-35.471-131.288-40.822-139.912-46.944-148.024-53.6-155.626L-56.196-158.572-58.761-161.232-61.327-163.893-64.183-166.551-67.045-169.196-69.989-171.643C-70.975-172.453-71.942-173.285-72.943-174.074L-76.01-176.359C-84.193-182.44-93.048-187.545-102.238-191.801-111.437-196.052-120.991-199.431-130.716-202.048-140.448-204.646-150.35-206.479-160.306-207.663-170.262-208.857-180.287-209.357-190.283-209.106-200.278-208.849-210.244-207.805-220.049-205.984-229.832-204.109-239.526-201.507-248.614-197.514-247.003-197.811-245.392-198.082-243.781-198.343-245.945-197.791-247.115-197.444-247.115-197.444-194.567-202.744-151.11-183.342-125.354-167.544-127.63-168.51-129.945-169.427-132.3-170.288-136.879-171.959-141.612-173.376-146.43-174.592-151.25-175.805-156.174-176.735-161.137-177.481-166.099-178.248-171.114-178.725-176.133-179-186.154-179.605-196.259-179.27-205.974-178.336-215.821-177.394-225.411-175.753-234.513-173.51-243.626-171.276-252.237-168.376-260.192-165.16-268.137-161.904-275.383-158.237-281.862-154.53-288.304-150.748-293.986-146.936-298.781-143.247-303.573-139.558-307.564-136.122-310.681-133.117-311.236-132.59-311.755-132.084-312.258-131.587-325.425-119.128-331.961-108.564-332.206-108.163-291.948-147.018-233.787-140.587-217.373-137.814-219.355-134.619-221.179-131.135-222.48-127.138-222.582-126.818-222.68-126.494-222.773-126.167-223.42-126.297-224.107-126.428-224.847-126.557-227.401-126.997-230.5-127.459-234.055-127.752-237.608-128.048-241.617-128.266-245.978-128.249-250.336-128.213-255.052-128.056-260.002-127.583L-260.935-127.507-261.889-127.411C-262.51-127.342-263.135-127.272-263.765-127.202-265.074-127.048-266.361-126.868-267.665-126.67-270.273-126.27-272.926-125.769-275.602-125.156-286.296-122.729-297.42-118.397-307.26-111.861-312.176-108.605-316.748-104.813-320.789-100.636-324.835-96.461-328.34-91.901-331.243-87.204-334.152-82.509-336.471-77.686-338.261-72.98-340.063-68.276-341.363-63.695-342.294-59.427-343.054-55.959-343.584-52.709-343.96-49.728L-356.943-79.924C-366.752-12.545-329.331 40.296-314.933 57.765-314.846 59.164-314.139 70.189-312.637 83.15-320.813 74.582-333.473 59.888-345.008 40.538-362.34 11.46-380.635-34.457-369.357-88.081-348.562-186.964-260.24-243.282-149.577-228.229L-149.375-228.206C-149.013-228.173-112.332-224.653-75.241-201.204-37.2-177.154 21.891-119.451 0 0" fill="#f15b2b"/>
<path transform="matrix(1,0,0,-1,224.605,319.44209)" d="M0 0C-1.193-9.181 3.036-15.171 6.159-18.251 17.469-26.621 37.579-17.754 47.7-12.301 40.786-.499 39.383 21.969 66.915 46.896 48.234 8.443 59.891-9.271 87.704 14.06 109.039 31.957 123.026 60.529 128.385 72.87 127.903 72.773 127.422 72.674 126.938 72.583 125.263 72.282 123.582 72.008 121.891 71.808 120.364 71.628 118.836 71.452 117.301 71.344 114.948 68.867 104.501 58.066 91.594 47.797L89.726 46.311 88.438 48.323C82.357 57.821 79.793 66 78.787 70.171 17.14 38.229 1.876 14.417 0 0" fill="#f15b2b"/>
<path transform="matrix(1,0,0,-1,485.8199,151.61048)" d="M0 0C-.356 3.277-1.279 6.573-2.65 9.735-3.011 10.567-3.402 11.39-3.816 12.203-5.773 8.739-7.732 5.277-9.716 1.829L-14.712-6.872-18.717-13.745C-22.001-22.814-32.47-34.405-32.47-34.405-32.525-33.227-27.267-11.654-25.308-1.314-21.753 17.453-21.269 32.704-22.568 37.679-23.678 41.929-26.463 46.995-28.378 50.098-35.651 17.58-40.575 .582-42.563-5.824L-34.118-3.568-34.884-6.451C-55.871-85.474-73.745-127.532-79.893-140.88L-60.564-130.689-60.153-133.02C-58.72-141.126-58.007-149.314-57.773-157.206-56.026-139.255-54.951-121.799-54.951-121.799L-63.864-126.12-51.07-114.238C-51.07-114.238-36.551-189.2-61.852-249.113-61.852-249.113-49.345-247.096-34.251-234.71-34.251-234.71-55.307-267.121-82.857-288.673-82.671-289.295-82.482-289.914-82.295-290.524-81.776-292.187-81.24-293.801-80.698-295.38-55.62-276.849-36.07-255.339-23.927-232.835-12.789-212.197-8.027-190.91-10.517-172.898-13.535-151.058-17.601-120-20.261-99.503-20.321-99.744-20.386-99.983-20.446-100.223-21.379-103.926-22.235-107.646-23.065-111.375-23.872-115.109-24.659-118.853-25.357-122.618-26.117-126.375-26.747-130.16-27.358-133.957-28.011-137.75-28.523-141.567-29.101-145.396-29.359-147.312-29.609-149.231-29.897-151.155-30.139-153.079-30.4-155.007-30.692-156.94-31.168-153.068-31.514-149.176-31.682-145.276-31.875-141.375-31.902-137.466-31.845-133.553-31.824-131.595-31.733-129.641-31.626-127.686-31.539-125.729-31.405-123.774-31.259-121.819-31.116-119.863-30.885-117.918-30.693-115.964-30.469-114.017-30.205-112.073-29.947-110.127-29.361-106.25-28.736-102.371-27.934-98.532-27.184-94.679-26.263-90.867-25.331-87.061-23.424-79.46-21.272-71.933-18.947-64.49-16.656-57.033-14.114-49.687-11.62-42.357L-4.185-20.432-2.383-14.974-1.496-12.211-1.052-10.83C-.904-10.384-.825-10.038-.705-9.638 .146-6.533 .372-3.278 0 0" fill="#ffffff"/>
<path transform="matrix(1,0,0,-1,403.5123,156.64759)" d="M0 0C1.058 .567 2.117 1.129 3.181 1.682 5.18 2.72 7.175 3.725 9.216 4.72 10.402 7.496 11.603 10.342 12.801 13.21 11.76 14.274 10.514 15.458 9.316 16.557 8.072 17.702 6.798 18.828 5.506 19.937 2.922 22.157 .27 24.313-2.438 26.403-7.857 30.58-13.481 34.511-19.263 38.196-25.046 41.878-30.984 45.322-37.061 48.504-40.101 50.09-43.164 51.632-46.27 53.087-47.337 53.606-48.418 54.095-49.498 54.583-49.506 54.411-49.508 54.237-49.517 54.065-49.641 51.598-49.885 49.163-50.261 46.758-50.627 44.351-51.094 41.972-51.653 39.623-52.2 37.269-52.836 34.944-53.555 32.65-55.003 28.066-56.724 23.59-58.667 19.23-60.598 14.864-62.805 10.64-65.158 6.518-67.516 2.379-70.031-1.584-72.747-5.529-74.1-7.558-75.463-9.337-76.819-11.211L-79-14.058C-79.708-14.996-80.439-15.915-81.177-16.829-84.092-20.515-87.145-24.083-90.259-27.583-93.361-31.095-96.604-34.465-99.878-37.778-106.426-44.412-113.175-50.729-119.792-57.063-126.439-63.358-132.964-69.68-139.036-76.373-142.072-79.718-145.03-83.129-147.846-86.651-148.605-87.599-149.361-88.55-150.12-89.499-151.17-90.854-152.191-92.199-153.173-93.532-153.184-93.694-153.188-93.786-153.189-93.798L-153.359-93.789C-171.263-118.169-177.979-138.795-180.381-152.542-173.483-136.833-152.887-114.74-99.554-87.474L-96.844-86.088-96.437-89.109C-96.424-89.202-95.086-98.411-88.105-110.092-79.379-102.985-71.992-95.846-67.847-91.673-68.497-91.67-69.146-91.669-69.803-91.645-70.687-91.604-71.493-91.568-72.493-91.469L-81.875-90.545-75.605-84.325H-75.604C-68.98-76.62-62.819-68.387-56.822-60.01-50.822-51.623-45.027-43.059-39.09-34.492-37.602-32.35-36.102-30.209-34.567-28.072-33.407-26.46-32.216-24.853-30.986-23.248-20.885 7.164-34.171 27.834-34.171 27.834-18.437 17.764-5.369 5.371 0 0" fill="#ffffff"/>
<path transform="matrix(1,0,0,-1,441.1129,93.99188)" d="M0 0C-.396-.696-.475-1.364-.139-1.752 .397-2.371 1.786-2.043 2.963-1.021 4.14 .003 4.659 1.334 4.123 1.953 3.82 2.303 3.242 2.341 2.588 2.132 7.421 4.524 14.938-.72 14.938-.72 14.938-.72 10.754 5.112 5.752 5.021 .749 4.93-1.979 3.017-3.071-.628-4.163-4.273-2.495-7.341-2.495-7.341-2.495-7.341-2.652-3.19 0 0" fill="#ffffff"/>
<path transform="matrix(1,0,0,-1,297.5757,457.32099)" d="M0 0C15.523-17.496 64.519-12.15 64.519-12.15L54.331 .972C54.331 .972-1.823 2.055 0 0" fill="#9a1b2c"/>
<path transform="matrix(1,0,0,-1,494.525,364.25459)" d="M0 0C5.821 52.487-24.739 129.76-24.739 129.76-24.739 129.76-21.102 83.105-17.463 56.861-13.825 30.618-17.463-12.393-17.463-12.393-17.463-12.393-5.821-52.486 0 0" fill="#9a1b2c"/>
<path transform="matrix(1,0,0,-1,257.313,348.21647)" d="M0 0C8.908-4.502 16.042-6.499 21.759-6.715 22.054-6.428 22.354-6.142 22.646-5.854 29.138 .531 35.74 6.819 42.896 12.457 44.274 19.204 44.146 26.273 43.795 31.025L75.675 60.992 98.96 104.245 85.135 102.058C85.135 102.058 67.429 78.488 52.875 64.394 52.875 64.394 46.933 70.347 40.748 84.563 40.748 84.563 40.45 84.388 39.896 84.06L39.89 84.052C35.516 78.247 27.768 67.038 23.005 54.823 20.164 48.392 18.093 41.838 17.948 36.207 17.869 33.11 18.314 30.712 19.104 28.849 16.869 31.75 10.879 42.028 15.28 64.88-14.796 41.066-31.252 15.797 0 0" fill="#9a1b2c"/>
<path transform="matrix(1,0,0,-1,308.2486,456.10618)" d="M0 0 38.564 4.374C38.564 4.374 22.557 24.785 20.374 31.346 18.19 37.907-5.821 28.431-5.821 28.431-5.821 28.431-62.578 38.636-82.225 75.085-83.554 77.551-84.711 79.659-85.723 81.467-86.676 90.67-89.152 102.848-95.555 98.829-95.555 98.829-110.603 37.178-40.021 3.645Z" fill="#9a1b2c"/>
<path transform="matrix(1,0,0,-1,546.0396,324.48069)" d="M0 0C-7.128 41.144-2.763 1.05-2.763 1.05-2.763 1.05 3.952-104.168-59.809-149.852-37.35-125.741 14.203-51.652-47.963 73.927-76.066 130.699-50.787 71.761-50.787 71.761L-47.876 59.369-40.357 25.592C-40.357 25.592-10.039-41.96-75.526-136.729L-69.716-156.133C-72.729-157.81-75.877-159.366-79.165-160.786-103.611-171.341-124.632-177.735-142.171-181.498L-105.36-160.786-112.637-142.56-137.445-149.662C-137.718-146.829-138.937-140.268-144.168-129.439-151.444-114.373-150.978-112.245-133.011-63.83-111.909-6.969-123.377 36.908-123.377 36.908-130.1-15.353-154.477-44.876-154.477-44.876-155.325-32.727-158.721-19.605-158.721-19.605-158.721-19.605-161.753-29.932-169.878-45.363-172.372-40.404-174.137-36.573-177.519-31.633-177.519-31.633-176.626-59.177-184.067-87.036-185.279-91.574-186.979-97.487-186.978-97.485-188.323-103.113-188.113-107.531-188.064-111.001-183.987-113.111-184.933-116.173-181.516-119.242-180.686-119.987-179.854-120.734-179.006-121.459L-174.365-117.167-164.663-83.634-161.02-80.323C-162.592-87.677-164.486-99.75-165.027-116.803-165.921-145.022-153.227-152.593-151.23-153.608L-173.759-160.056-189.039-158.598C-189.039-158.598-250.404-174.636-300.369-149.85-300.369-149.85-240.217-237.329-123.552-210.356-6.788-183.361 7.128-41.144 0 0" fill="#9a1b2c"/>
<path transform="matrix(1,0,0,-1,391.6851,214.56897)" d="M0 0 .153 8.561C.153 8.561-17.721 1.664-23.043-2.673-32.138-10.084-36.145-16.499-36.145-16.499-36.145-16.499-11.946-14.276 5.578 .243Z" fill="#9a1b2c"/>
<path transform="matrix(1,0,0,-1,274.2886,263.89469)" d="M0 0C0 0 .16 .452 .59 1.341L-10.187-4.374Z" fill="#908fb3"/>
<path transform="matrix(1,0,0,-1,363.5269,152.91376)" d="M0 0C-.058-.189-2.403-24.477-34.177-64.085-34.177-64.085-34.759-57.648-32.598-46.064-36.338-49.928-40.485-53.996-45.092-58.253-76.752-87.515-86.393-104.887-88.648-109.64L-58.189-93.485C-57.222-102.722-50.483-118.205-50.483-118.205L-21.079-93.245-29.084-89.6 7.299-37.601C14.575-20.834 .022 .065 .022 .065 .022 .065 .015 .044 0 0" fill="#908fb3"/>
<path transform="matrix(1,0,0,-1,455.1275,308.55097)" d="M0 0-10.082 18.896C-7.899-18.768-21.725-51.572-21.725-51.572L-32.882-93.853-44.524-114.265C-44.524-114.265-38.218-118.639-17.844-96.284 2.53-73.928 11.747-49.142 12.232-31.646 12.718-14.151 4.956 44.654 4.956 44.654Z" fill="#908fb3"/>
<path transform="matrix(1,0,0,-1,423.5797,285.52357)" d="M0 0 4.467-23.292 8.004-28.066 8.731 13.851-1.624 7.793-2.29 7.18C17.334 85.15 24.376 124.657 24.376 124.657L2.547 50.665-20.737-10.935-14.18-5.597Z" fill="#908fb3"/>
<path transform="matrix(1,0,0,-1,481.9097,139.07727)" d="M0 0 1.701 4.454-.355 1.259-.846 2.996-15.763-16.687-14.308 .444C-14.308 .444-17.945 7.734-19.401-3.565-20.856-14.864-33.954-69.903-33.954-69.903L-20.917-43.264-19.037-49.855-.906-2.374 .094-.331Z" fill="#908fb3"/>
<path transform="matrix(1,0,0,-1,389.1988,179.63837)" d="M0 0C4.185 3.333 16.207 10.255 16.207 10.255L20.677 17.313C20.677 17.313 2.486 11.967-8.187 .79-18.858-10.388-21.041-16.949-21.041-16.949L-10.369-14.762C-10.369-14.762-2.365-1.883 0 0" fill="#fbb042"/>
<path transform="matrix(1,0,0,-1,439.4664,105.46405)" d="M0 0-18.434-37.421C-18.434-37.421-25.417-52.682-30.134-64.275-34.053-73.907-38.329-81.35-33.472-75.329-25.642-65.624-17.942-52.944-11.319-40.752L-11.157-51.515 8.489 .243Z" fill="#fbb042"/>
<path transform="matrix(1,0,0,-1,391.9742,222.45566)" d="M0 0C-16.931-9.345-42.493-12.525-42.493-12.525-27.516 11.289-9.407 29.698-9.407 29.698-24.832 23.321-45.646-4.506-45.646-4.506L-55.105-17.142-32.063-17.385-22.848-14.045-41.522-46.787-60.461-76.549C-62.17-77.638-63.642-78.585-64.808-79.349-77.42-87.61-159.887-143.499-159.887-143.499-159.887-143.499-110.944-151.817-59.763-109.96-41.197-94.777-19.81-72.359-3.928-41.441-3.928-41.441-14.263-47.789-26.616-55.427-14.231-33.478-4.718-8.224-4.718-8.224L-12.108-10.154-9.264-9.123C-9.264-9.123 16.932 9.345 0 0" fill="#fbb042"/>
<path transform="matrix(1,0,0,-1,193.2798,336.55238)" d="M0 0C6.511 47.602 42.204 89.422 42.204 89.422L44.629 74.6 51.735 83.036 55.01 118.026C55.01 118.026-34.486 62.261-10.475-61.296 13.536-184.853 135.774-199.067 135.774-199.067 18.191-161.106-10.249-74.938 0 0" fill="#fbb042"/>
<path transform="matrix(1,0,0,-1,557.8306,302.29017)" d="M0 0-14.554-21.141-14.311-32.562-5.094-21.87C-5.094-21.87-1.046-47.726-4.585-77.899-10.483-128.188-34.866-196.948-115.211-225.5-115.211-225.5 32.744-204.845 0 0" fill="#fbb042"/>
<path transform="matrix(1,0,0,-1,493.2535,253.71009)" d="M0 0 7.578-8.243 13.399 8.767C13.399 8.767 64.577-87.216 26.739-168.863 26.739-168.863 79.857-69.721 10.731 35.253L-.725 1.54C-5.551 11.671-11.575 22.42-19.103 33.552L-25.894 28.207C-25.894 28.207 4.425-18.935 18.465-75.82 18.465-75.82 20.524-43.923 0 0" fill="#fbb042"/>
<path transform="matrix(1,0,0,-1,481.4127,508.75358)" d="M0 0C-37.091-23.449-73.771-26.969-74.134-27.002L-74.336-27.024C-184.999-42.078-273.321 14.24-294.116 113.123-305.394 166.748-287.099 212.665-269.767 241.742-258.231 261.092-245.572 275.786-237.396 284.354-238.897 271.393-239.605 260.368-239.691 258.969-254.09 241.5-291.511 188.659-281.702 121.28L-268.719 151.477C-268.343 148.495-267.813 145.245-267.053 141.777-266.122 137.509-264.822 132.928-263.02 128.225-261.229 123.519-258.911 118.695-256.002 114-253.099 109.303-249.594 104.743-245.548 100.568-241.507 96.391-236.935 92.599-232.019 89.343-222.179 82.807-211.055 78.476-200.36 76.048-197.685 75.436-195.032 74.935-192.424 74.534-191.12 74.336-189.833 74.156-188.523 74.002-187.894 73.932-187.269 73.862-186.647 73.793L-185.693 73.697-184.761 73.621C-179.811 73.148-175.095 72.991-170.736 72.955-166.376 72.938-162.367 73.156-158.813 73.452-155.259 73.745-152.16 74.207-149.605 74.647-148.866 74.776-148.179 74.907-147.532 75.037-147.438 74.71-147.341 74.386-147.239 74.066-145.937 70.069-144.114 66.585-142.132 63.39-158.546 60.617-216.707 54.187-256.965 93.041-256.72 92.64-250.184 82.076-237.017 69.617-236.514 69.12-235.995 68.614-235.439 68.087-232.323 65.082-228.332 61.646-223.54 57.957-218.745 54.269-213.062 50.456-206.621 46.674-200.142 42.967-192.896 39.3-184.951 36.044-176.996 32.828-168.385 29.928-159.271 27.694-150.17 25.451-140.58 23.811-130.732 22.868-121.018 21.935-110.913 21.599-100.892 22.204-95.873 22.479-90.857 22.956-85.896 23.723-80.933 24.469-76.009 25.399-71.188 26.612-66.371 27.828-61.638 29.245-57.059 30.916-54.704 31.777-52.389 32.694-50.113 33.66-75.869 17.862-119.326-1.54-171.874 3.76-171.874 3.76-170.704 3.413-168.54 2.861-170.15 3.122-171.762 3.394-173.373 3.69-164.285-.303-154.591-2.905-144.808-4.78-135.003-6.601-125.037-7.645-115.042-7.902-105.046-8.153-95.021-7.653-85.064-6.459-75.108-5.275-65.207-3.441-55.475-.844-45.75 1.773-36.195 5.152-26.997 9.403-17.807 13.659-8.952 18.764-.769 24.845L2.298 27.13C3.299 27.919 4.267 28.751 5.252 29.562L8.196 32.008 11.059 34.653 13.914 37.312 16.48 39.972 19.045 42.632 21.642 45.578C28.297 53.18 34.42 61.292 39.771 69.916 45.119 78.539 49.709 87.651 53.469 97.097 57.152 106.568 60.108 116.34 62.086 126.304 63.131 131.276 63.85 136.305 64.488 141.337 65.035 146.378 65.448 151.435 65.596 156.498 65.893 165.78 65.556 175.065 64.627 184.273 68.729 190.167 72.417 196.253 75.241 201.204 97.132 81.753 38.041 24.05 0 0M-231.26 258.317-231.09 258.308C-231.089 258.32-231.084 258.412-231.073 258.574-230.092 259.907-229.07 261.252-228.021 262.607-227.262 263.556-226.505 264.507-225.746 265.455-222.931 268.977-219.973 272.388-216.937 275.733-210.864 282.426-204.34 288.748-197.692 295.043-191.075 301.377-184.326 307.694-177.778 314.328-174.504 317.641-171.262 321.011-168.159 324.523-165.045 328.022-161.992 331.591-159.077 335.277-158.34 336.191-157.608 337.11-156.9 338.048L-154.72 340.895C-153.363 342.769-152 344.548-150.647 346.577-147.932 350.522-145.416 354.485-143.059 358.624-140.705 362.746-138.498 366.97-136.567 371.336-134.624 375.696-132.903 380.172-131.455 384.756-130.736 387.05-130.101 389.375-129.554 391.729-128.994 394.078-128.527 396.457-128.161 398.864-127.785 401.269-127.541 403.704-127.417 406.171-127.408 406.343-127.406 406.517-127.398 406.689-126.318 406.201-125.237 405.712-124.17 405.193-121.064 403.738-118.001 402.196-114.961 400.61-108.885 397.428-102.946 393.984-97.163 390.302-91.382 386.617-85.758 382.686-80.339 378.509-77.631 376.419-74.979 374.263-72.395 372.043-71.103 370.934-69.828 369.808-68.584 368.663-67.387 367.563-66.141 366.38-65.1 365.316-66.298 362.448-67.498 359.602-68.685 356.826-70.726 355.831-72.721 354.826-74.72 353.788-75.783 353.235-76.843 352.673-77.9 352.106-83.27 357.477-96.337 369.87-112.071 379.94-112.071 379.94-98.785 359.27-108.887 328.858-110.116 327.253-111.308 325.646-112.468 324.034-114.002 321.897-115.502 319.756-116.99 317.614-122.928 309.047-128.723 300.483-134.723 292.096-140.72 283.719-146.881 275.486-153.505 267.781H-153.506L-159.775 261.561-150.394 260.637C-149.394 260.538-148.587 260.502-147.703 260.461-147.047 260.437-146.397 260.436-145.747 260.433-149.893 256.26-157.279 249.121-166.006 242.014-172.986 253.695-174.324 262.904-174.337 262.997L-174.744 266.018-177.454 264.632C-230.787 237.366-251.384 215.272-258.281 199.563-255.879 213.311-249.163 233.937-231.26 258.317M-139.507 260.656C-137.972 260.764-136.443 260.94-134.917 261.12-133.226 261.319-131.545 261.593-129.869 261.894-129.386 261.985-128.904 262.085-128.423 262.181-133.781 249.841-147.769 221.269-169.104 203.372-196.917 180.041-208.573 197.755-189.893 236.208-217.425 211.28-216.021 188.812-209.107 177.01-219.229 171.558-239.339 162.69-250.648 171.06-253.771 174.14-258.001 180.131-256.808 189.312-254.932 203.729-239.668 227.541-178.021 259.483-177.015 255.312-174.45 247.133-168.37 237.634L-167.082 235.623-165.214 237.108C-152.307 247.377-141.859 258.178-139.507 260.656M-126.471 43.964C-157.029 40.225-175.896 49.273-175.896 49.273-158.353 47.071-139.562 48.645-131.633 49.517-131.496 49.364-131.361 49.201-131.225 49.051-129.615 47.261-128.028 45.569-126.471 43.964M-64.002 349.69C-55.972 367.507-46.224 389.234-40.889 401.468-37.098 402.314-32.03 403.661-27.894 405.523-37.1 364.691-42.343 349.557-42.396 349.406L-43.479 346.319-34.58 348.697C-60.022 253.644-80.617 213.498-80.825 213.1L-83.374 208.197-58.75 221.181C-54.124 192.167-58.545 162.511-60.825 150.401-61.267 148.701-61.744 146.969-62.266 145.197-63.472 141.151-64.896 136.942-66.546 132.662-67.364 130.52-68.272 128.371-69.186 126.198-70.161 124.049-71.115 121.864-72.179 119.705-74.29 115.384-76.582 111.063-79.146 106.9-79.76 105.845-80.416 104.813-81.081 103.789-81.74 102.761-82.364 101.714-83.04 100.701-84.406 98.685-85.722 96.648-87.156 94.712L-88.207 93.248-88.73 92.519-89.149 91.922-89.401 91.537C-89.596 91.24-90.1 90.291-90.228 89.908L-90.502 89.189-90.707 88.505C-90.965 87.594-91.105 86.752-91.201 85.945-91.384 84.34-91.37 82.881-91.281 81.489-91.192 80.1-91.035 78.775-90.835 77.498-90.014 72.401-88.732 67.852-87.378 63.595-85.998 59.356-84.552 55.443-83.152 51.868-81.721 48.306-80.343 45.081-79.09 42.24-77.867 39.51-76.755 37.15-75.817 35.184-77.256 34.887-78.698 34.601-80.15 34.337-84.422 42.366-92.374 59.153-96.259 79.227-98.355 90.064-97.326 88.296-85.046 107.454-64.92 138.851-62.045 171.111-62.045 171.111-62.045 171.111-74.137 137.04-96.145 114.445L-96.689 139.858C-122.997 75.481-111.353 73.321-111.353 73.321-119.115 74.617-132.197 81.53-132.197 81.53-132.197 81.53-134.837 70.381-93.869 32.43-95.768 32.247-97.673 32.096-99.579 31.963-100.411 32.697-101.516 33.687-102.88 34.937-104.467 36.372-106.379 38.133-108.525 40.196-110.687 42.244-113.099 44.578-115.641 47.195-118.186 49.809-120.913 52.656-123.62 55.785-126.313 58.921-129.083 62.263-131.589 65.869-134.07 69.466-136.347 73.355-137.737 77.24-138.407 79.174-138.826 81.104-138.805 82.808-138.815 83.24-138.772 83.645-138.727 84.045-138.693 84.228-138.671 84.467-138.639 84.606-138.604 84.735-138.585 84.857-138.564 85.002L-137.397 88.451C-136.59 90.917-135.702 93.358-135.108 95.862-134.47 98.354-133.733 100.812-133.284 103.305-132.794 105.788-132.207 108.234-131.885 110.687-131.517 113.133-131.111 115.544-130.918 117.934-129.907 127.473-130.003 136.403-130.609 143.979-130.891 147.769-131.38 151.221-131.808 154.267-132.305 157.31-132.797 159.946-133.285 162.101-133.541 163.175-133.77 164.135-133.969 164.969-134.194 165.797-134.387 166.501-134.542 167.072-134.866 168.212-135.072 168.807-135.072 168.807-135.072 168.807-135.073 166.28-135.176 161.913-135.207 160.823-135.241 159.616-135.279 158.302-135.306 156.993-135.411 155.572-135.46 154.063-135.52 152.319-135.631 150.436-135.763 148.456-148.891 139.42-165.549 131.073-165.549 131.073L-140.247 130.497C-185.962 99.677-236.851 112.639-236.851 112.639-205.225 120.128-185.674 133.378-185.674 133.378-213.746 127.53-232.547 134.065-244.481 142.379-241.204 142.239-237.942 142.451-234.732 142.891-230.499 143.486-226.413 144.417-222.199 145.612-221.217 145.906-220.231 146.201-219.243 146.497L-218.809 146.63-218.428 146.764-217.666 147.031-216.14 147.567C-214.112 148.311-212.02 148.934-210.039 149.84-209.311 150.149-208.58 150.459-207.851 150.769-182.727 160.363-147.373 181.577-110.922 228.431L-140.977 207.126C-138.857 209.96-136.836 212.78-134.911 215.556-130.675 221.681-126.889 227.614-123.635 233.226-120.369 238.83-117.51 244.041-115.129 248.739-112.737 253.431-110.775 257.584-109.222 261.037-107.679 264.496-106.527 267.244-105.766 269.144-105.641 269.462-105.528 269.746-105.422 270.014L-103.379 271.065-101.149 272.328C-100.403 272.737-99.68 273.192-98.962 273.655-98.245 274.121-97.514 274.553-96.814 275.044-95.419 276.029-94.02 276.991-92.701 278.074-91.344 279.093-90.094 280.262-88.818 281.368L-87.006 283.154-86.108 284.045-85.249 284.979C-84.68 285.602-84.127 286.24-83.575 286.872-83.05 287.534-82.517 288.182-82.007 288.849-80.96 290.153-80.065 291.592-79.16 292.983-79.862 292.521-80.537 292.038-81.219 291.569-81.88 291.081-82.555 290.612-83.256 290.176L-85.288 288.816-87.367 287.544-88.387 286.898-89.438 286.298-91.53 285.109C-92.955 284.367-94.332 283.578-95.773 282.897-96.492 282.556-97.187 282.181-97.909 281.853L-100.069 280.869C-101.515 280.23-102.962 279.608-104.428 279.034L-106.624 278.177-108.839 277.373C-109.569 277.09-110.328 276.872-111.069 276.618-111.81 276.36-112.552 276.111-113.306 275.89-114.8 275.418-116.312 274.999-117.817 274.568-119.337 274.179-120.847 273.769-122.376 273.419-123.899 273.058-125.431 272.719-126.967 272.412-128.502 272.097-130.043 271.807-131.588 271.54-134.379 271.056-137.182 270.634-139.993 270.289-139.645 270.805-138.935 271.846-137.929 273.274-134.984 277.083-132.127 280.942-129.322 284.827-121.442 294.86-110.232 307.713-98.846 315.996-98.846 315.996-103.33 316.074-108.874 314.16-106.269 317.89-103.646 321.607-100.93 325.054-100.544 325.527-100.161 326.027-99.772 326.477L-99.192 327.167-98.657 327.769C-97.832 328.679-97.103 329.396-96.19 330.18-94.436 331.722-92.438 333.184-90.402 334.595-86.304 337.414-81.926 340.009-77.485 342.494-76.394 343.101-75.28 343.679-74.179 344.272-74.924 342.573-75.526 340.932-76.007 339.37L-90.005 330.613-77.57 332.124C-78.183 327.198-77.653 324.05-77.714 323.917-77.714 323.917-71.841 332.304-65.355 346.687-64.946 347.595-64.529 348.519-64.109 349.451-64.05 349.479-63.989 349.51-63.93 349.539ZM-38.226 418.04C-37.629 418.287-36.892 418.403-36.07 418.403-33.346 418.403-29.706 417.128-27.285 415.143-25.945 414.044-25.606 413.202-25.632 413.041-26.381 411.376-34.144 408.296-42.012 406.529-42.302 406.561-42.614 406.748-42.82 407.728-43.5 410.961-41.311 416.76-38.226 418.04M-23.971 407.241C-22.056 404.138-19.271 399.072-18.161 394.822-16.861 389.847-17.346 374.596-20.9 355.829-22.859 345.489-28.118 323.917-28.062 322.738-28.062 322.738-17.594 334.329-14.31 343.398L-10.305 350.271-5.309 358.972C-3.325 362.42-1.366 365.882 .591 369.346 1.005 368.533 1.396 367.71 1.757 366.878 3.128 363.716 4.051 360.42 4.407 357.143 4.779 353.865 4.553 350.61 3.702 347.505 3.582 347.105 3.503 346.759 3.355 346.313L2.911 344.932 2.024 342.169 .223 336.711-7.213 314.786C-9.707 307.456-12.249 300.11-14.54 292.653-16.865 285.21-19.017 277.683-20.924 270.083-21.855 266.276-22.776 262.464-23.526 258.611-24.329 254.772-24.954 250.894-25.54 247.016-25.798 245.07-26.062 243.126-26.286 241.179-26.478 239.225-26.709 237.28-26.852 235.324-26.998 233.369-27.132 231.415-27.219 229.457-27.326 227.502-27.417 225.548-27.437 223.59-27.495 219.677-27.468 215.769-27.274 211.867-27.106 207.967-26.761 204.075-26.285 200.203-25.993 202.136-25.731 204.064-25.49 205.988-25.202 207.912-24.952 209.832-24.693 211.748-24.116 215.576-23.604 219.393-22.951 223.187-22.34 226.983-21.71 230.768-20.95 234.525-20.252 238.29-19.465 242.034-18.658 245.768-17.828 249.498-16.972 253.217-16.039 256.92-15.979 257.16-15.914 257.399-15.854 257.64-13.193 237.144-9.128 206.085-6.109 184.245-3.62 166.233-8.382 144.946-19.52 124.308-31.663 101.804-51.213 80.294-76.291 61.763-76.833 63.342-77.369 64.956-77.888 66.619-78.075 67.229-78.264 67.848-78.45 68.47-50.899 90.022-29.844 122.433-29.844 122.433-44.938 110.047-57.444 108.03-57.444 108.03-32.144 167.943-46.663 242.905-46.663 242.905L-59.457 231.023-50.544 235.344C-50.544 235.344-51.619 217.888-53.366 199.937-53.6 207.829-54.313 216.017-55.746 224.124L-56.157 226.454-75.485 216.263C-69.338 229.611-51.464 271.669-30.477 350.692L-29.711 353.575-38.155 351.319C-36.168 357.725-31.244 374.723-23.971 407.241M-3.19 276.444C-2.449 275.078-1.752 273.625-.999 272.134-.264 270.635 .549 269.108 1.287 267.499 2.058 265.904 2.85 264.266 3.659 262.592 4.464 260.916 5.209 259.173 6.01 257.417 6.406 256.538 6.806 255.651 7.207 254.758 7.592 253.858 7.979 252.951 8.368 252.04 9.128 250.208 9.983 248.385 10.686 246.488 11.421 244.603 12.162 242.703 12.906 240.795 13.608 238.871 14.313 236.939 15.019 235.007 15.756 233.084 16.342 231.111 16.986 229.164 17.622 227.214 18.266 225.273 18.814 223.319 19.395 221.373 19.97 219.441 20.539 217.533 21.059 215.608 21.571 213.706 22.077 211.835 22.34 210.9 22.601 209.973 22.858 209.055 23.087 208.128 23.312 207.21 23.535 206.302 23.98 204.482 24.416 202.702 24.84 200.969 25.7 197.498 26.355 194.179 27.095 191.128 27.77 188.067 28.276 185.237 28.857 182.738 28.996 182.112 29.13 181.506 29.26 180.921 29.37 180.334 29.477 179.768 29.578 179.223 29.776 178.133 29.996 177.134 30.174 176.229 30.532 174.42 30.844 172.996 31.059 172.025 31.278 171.053 31.396 170.535 31.396 170.535 31.396 170.535 31.434 171.063 31.503 172.054 31.567 173.045 31.659 174.5 31.736 176.353 31.812 178.206 31.96 180.464 31.914 183.044 31.92 185.629 31.846 188.544 31.764 191.734 31.692 193.326 31.55 194.977 31.437 196.693 31.302 198.406 31.23 200.189 31.027 202.007 30.809 203.824 30.583 205.69 30.354 207.598 30.233 208.552 30.111 209.518 29.988 210.492 29.834 211.462 29.679 212.441 29.521 213.428 29.18 215.401 28.833 217.407 28.481 219.437 28.043 221.452 27.599 223.492 27.15 225.547 26.734 227.614 26.139 229.651 25.596 231.712 25.031 233.768 24.525 235.852 23.866 237.889 23.237 239.937 22.608 241.985 21.981 244.025 21.264 246.035 20.549 248.036 19.84 250.022 19.159 252.021 18.327 253.938 17.587 255.868 17.277 256.651 16.971 257.426 16.664 258.2 16.863 258.885 17.061 259.568 17.256 260.255 17.729 261.957 18.192 263.659 18.635 265.365 19.521 268.777 20.349 272.202 21.105 275.644 21.748 278.542 22.338 281.453 22.885 284.375 23.278 283.636 23.673 282.897 24.059 282.154 26.305 277.859 28.399 273.48 30.439 269.078 34.5 260.262 38.115 251.241 41.281 242.078 44.466 232.92 47.194 223.612 49.366 214.189 50.473 209.482 51.402 204.74 52.222 199.984 53.056 195.23 53.722 190.452 54.229 185.662 55.272 176.083 55.633 166.449 55.29 156.859 55.132 152.062 54.714 147.286 54.224 142.521 53.629 137.771 52.966 133.026 51.991 128.343 50.152 118.953 47.392 109.769 43.954 100.858 40.436 91.976 36.14 83.407 31.189 75.221 26.215 67.046 20.491 59.321 14.229 52.043L11.97 49.419 9.428 46.736 6.887 44.056 4.345 41.667 1.803 39.273-.918 36.976C-1.829 36.215-2.722 35.431-3.646 34.687L-4.03 34.396C19.575 65.93 21.908 110.047 21.908 110.047 21.908 110.047 21.33 108.949 20.176 106.958 19.6 105.961 18.865 104.748 18.003 103.33 17.125 101.919 16.102 100.312 14.936 98.532 12.575 94.989 9.624 90.769 5.992 86.145 2.357 81.529-1.925 76.479-7.032 71.411-9.502 68.963-12.172 66.517-15.029 64.115 28.949 125.416 9.833 196.747 9.833 196.747 8.294 192.429 5.437 183.819 3.113 176.749 3.038 179.701 2.825 182.603 2.435 185.43-2.016 217.634-8.751 269.928-9.878 278.697-9.191 280.862-8.483 283.022-7.76 285.179-7.548 284.777-7.337 284.375-7.11 283.955-5.895 281.751-4.632 279.193-3.19 276.444M81.322 214.671 78.7 226.587 73.253 215.673C73.193 215.554 68.947 207.087 62.938 197.419 61.923 203.837 60.64 210.205 59.109 216.503 56.755 226.278 53.832 235.895 50.446 245.331 47.045 254.762 43.153 264.002 38.826 273.032 36.666 277.549 34.372 282.001 31.957 286.395 30.751 288.592 29.516 290.775 28.237 292.94 26.943 295.124 25.677 297.218 24.214 299.444L16.336 311.43V297.66C16.081 295.976 15.861 294.289 15.577 292.607 15.306 290.924 15.026 289.242 14.713 287.564 14.109 284.205 13.426 280.855 12.686 277.517 12.175 275.193 11.619 272.879 11.046 270.57 10.818 271.044 10.589 271.522 10.365 271.989 9.564 273.642 8.697 275.197 7.906 276.729 7.098 278.251 6.344 279.739 5.556 281.125 3.987 283.905 2.556 286.45 1.21 288.674-.126 290.895-1.31 292.849-2.292 294.384-2.858 295.257-3.348 296.011-3.77 296.662L-2.321 300.773 1.609 311.665C4.239 318.935 6.939 326.216 9.435 333.589L11.31 339.14 12.217 341.897 12.67 343.275C12.83 343.747 12.99 344.339 13.147 344.866 14.372 349.215 14.734 353.821 14.22 358.232 13.715 362.65 12.477 366.876 10.754 370.802 9.889 372.766 8.918 374.668 7.826 376.5 7.284 377.418 6.709 378.317 6.103 379.207 5.802 379.652 5.484 380.092 5.158 380.532L4.65 381.197 4.057 381.934-.453 387.52-3.903 381.154C-5.844 377.575-7.794 374-9.738 370.422-8.541 382.498-8.627 392.458-9.816 397.01-11.573 403.736-18.48 412.276-20.929 415.201-21.473 416.573-22.5 417.919-24.007 419.155-28.146 422.548-35.338 424.85-40.205 422.83-45.762 420.526-48.913 412.335-47.925 406.919-51.189 399.315-56.195 386.862-61.539 373.9-61.939 374.276-62.343 374.652-62.754 375.031-64.078 376.25-65.421 377.435-66.776 378.6-69.488 380.93-72.256 383.178-75.073 385.354-80.713 389.7-86.543 393.775-92.533 397.592-98.524 401.407-104.672 404.972-110.961 408.266-114.107 409.908-117.279 411.504-120.492 413.01-122.089 413.785-123.716 414.495-125.329 415.236-126.947 415.963-128.583 416.652-130.21 417.361L-130.211 417.362-136.516 420.261-136.159 412.807-136.132 412.228-136.114 411.493C-136.109 410.992-136.114 410.477-136.133 409.956-136.165 408.916-136.233 407.858-136.338 406.797-136.539 404.672-136.871 402.536-137.26 400.403-138.043 396.134-139.227 391.903-140.625 387.738-142.03 383.571-143.694 379.473-145.575 375.462-147.467 371.458-149.519 367.513-151.76 363.664-153.98 359.82-156.429 356.026-158.953 352.41-160.171 350.623-161.571 348.723-162.906 346.867L-164.907 344.226C-165.579 343.323-166.274 342.439-166.976 341.559-172.53 334.471-178.562 327.761-184.807 321.172-191.056 314.589-197.623 308.21-204.162 301.69-210.659 295.123-217.146 288.421-223.213 281.284-225.493 278.591-227.745 275.868-229.907 273.071-229.286 279.645-228.403 287.665-227.223 295.522L-225.489 307.066-234.307 299.435C-235.239 298.628-257.377 279.287-277.024 246.419-295.227 215.967-314.432 167.813-302.557 111.341-291.602 59.253-262.764 17.784-219.159-8.583-187.247-27.88-148.581-37.95-107.726-37.949-96.379-37.949-84.857-37.172-73.271-35.6-70.572-35.349-33.696-31.521 4.603-7.308 34.907 11.851 58.321 38.522 72.315 69.823 90.494 110.484 93.523 159.218 81.322 214.671" fill="#030505"/>
<path transform="matrix(1,0,0,-1,355.5406,231.06757)" d="M0 0 5.247 3.024C5.247 3.024 25.085 3.889 30.477 19.659L36.298 25.06C36.298 25.06 14.52 20.955 0 0" fill="#030505"/>
<path transform="matrix(1,0,0,-1,159.6929,518.64028)" d="M0 0C.013 .117 .024 .289 .024 .528V76.023L-22.129 91.803 51.937 104.987V105.122L119.056 117.071 131.519 110.968V119.289L378.056 163.177V163.041L455.728 176.868 432.774 152.348C432.767 152.255 432.761 152.132 432.761 151.973V133.974L422.43 125.152V98.601L407.068 85.628C407.068 85.628 407.069 71.806 407.069 71.766L429.227 55.984 239.881 22.277 235.65 24.311 231.424 20.772-22.943-24.509Z" fill="#030505"/>
<path transform="matrix(1,0,0,-1,207.3892,475.54267)" d="M0 0-13.604-2.213-9.849-25.307 11.797-21.787 13.85-34.409-24.858-40.704-37.904 39.518 .804 45.813 2.856 33.19-18.805 29.764-15.627 10.223-2.022 12.435Z" fill="#ffffff"/>
<path transform="matrix(1,0,0,-1,249.4556,423.01918)" d="M0 0 17.251 2.805 30.297-77.416 12.578-80.298-8.44-39.281-1.4-82.571-18.557-85.361-31.603-5.14-13.417-2.183 6.584-40.484Z" fill="#ffffff"/>
<path transform="matrix(1,0,0,-1,315.2213,475.80928)" d="M0 0C-.321 1.58-.731 3.912-1.233 6.998L-7.354 44.631C-7.516 45.628-8.035 46.407-8.91 46.969-9.786 47.53-10.714 47.779-11.694 47.716L-16.978 46.856-8.296-6.531-3.013-5.672C-2.951-5.662-2.56-5.502-1.843-5.193-1.099-4.657-.535-3.934-.156-3.024 .225-2.115 .275-1.106 0 0M17.217 2.129C18.063-2.692 17.175-7.107 14.548-11.117 11.921-15.128 8.224-17.521 3.455-18.296L-23.753-22.721-36.799 57.501-13.611 61.271C-13.176 61.343-12.509 61.467-11.608 61.646-10.71 61.823-10.043 61.948-9.606 62.02-6.677 62.495-3.798 62.155-.972 61 1.855 59.844 4.221 58.085 6.125 55.725 8.028 53.362 9.219 50.717 9.694 47.787L16.408 6.508C16.484 6.04 16.619 5.311 16.812 4.318 17.005 3.325 17.141 2.596 17.217 2.129" fill="#ffffff"/>
<path transform="matrix(1,0,0,-1,386.2857,400.76728)" d="M0 0 1.695-10.425-6.056-70.467 11.009-67.692 13.046-80.221-21.783-85.885-23.479-75.46-15.977-15.362-33.229-18.167-35.25-5.732Z" fill="#ffffff"/>
<path transform="matrix(1,0,0,-1,417.7261,408.61009)" d="M0 0C-1.061-.172-1.917-.76-2.569-1.761-3.222-2.763-3.396-3.911-3.089-5.205L-2.496-8.852 3.548-46.017C3.593-46.489 3.651-46.943 3.723-47.38 3.794-47.816 3.891-48.369 4.015-49.036 4.14-49.704 4.247-50.317 4.339-50.879 4.473-52.296 4.959-53.369 5.798-54.096 6.636-54.824 7.579-55.07 8.629-54.835L8.816-54.805C9.876-54.633 10.688-54.461 11.252-54.289 11.815-54.118 12.379-53.842 12.94-53.463 13.503-53.083 13.872-52.552 14.049-51.866 14.225-51.183 14.245-50.323 14.109-49.29L12.977-42.324 7.274-7.263 6.682-3.616C6.504-2.333 5.965-1.325 5.062-.592 4.159 .141 3.172 .452 2.104 .343ZM17.386-67.663 7.054-69.343C4.315-69.82 1.553-69.502-1.235-68.388-4.023-67.274-6.461-65.464-8.549-62.955-10.636-60.448-11.948-57.542-12.485-54.238L-20.088-7.489C-20.874-2.658-19.884 1.773-17.117 5.807-14.349 9.839-10.913 12.221-6.81 12.952L3.99 14.709C5.978 15.063 8.047 14.938 10.193 14.326 12.34 13.716 14.319 12.758 16.131 11.453 17.943 10.147 19.522 8.454 20.868 6.369 22.216 4.285 23.087 2.027 23.482-.403L31.178-47.138C31.583-49.631 31.479-52.079 30.86-54.482 30.244-56.887 29.276-58.995 27.955-60.81 26.635-62.624 25.051-64.146 23.203-65.373 21.355-66.602 19.416-67.364 17.386-67.663" fill="#ffffff"/>
<path transform="matrix(1,0,0,-1,480.9634,385.36976)" d="M0 0 17.251 2.806 30.297-77.415 12.578-80.297-8.439-39.28-1.399-82.57-18.557-85.36-31.603-5.139-13.416-2.182 6.584-40.484Z" fill="#ffffff"/>
<path transform="matrix(1,0,0,-1,545.9195,420.48799)" d="M0 0-13.604-2.212-9.849-25.307 11.796-21.786 13.849-34.408-24.859-40.703-37.905 39.518 .803 45.813 2.855 33.19-18.805 29.764-15.627 10.223-2.022 12.436Z" fill="#ffffff"/>
</g>
</g>
</svg>
